<svg width="35" height="36" viewBox="0 0 35 36" fill="none" xmlns="http://www.w3.org/2000/svg">
<path d="M8.75 19.708C9.95812 19.708 10.9375 18.7286 10.9375 17.5205C10.9375 16.3124 9.95812 15.333 8.75 15.333C7.54188 15.333 6.5625 16.3124 6.5625 17.5205C6.5625 18.7286 7.54188 19.708 8.75 19.708Z" fill="none"/>
<path d="M17.125 19.708C18.3331 19.708 19.3125 18.7286 19.3125 17.5205C19.3125 16.3124 18.3331 15.333 17.125 15.333C15.9169 15.333 14.9375 16.3124 14.9375 17.5205C14.9375 18.7286 15.9169 19.708 17.125 19.708Z" fill="none"/>
<path d="M25.5 19.708C26.7081 19.708 27.6875 18.7286 27.6875 17.5205C27.6875 16.3124 26.7081 15.333 25.5 15.333C24.2919 15.333 23.3125 16.3124 23.3125 17.5205C23.3125 18.7286 24.2919 19.708 25.5 19.708Z" fill="none"/>
</svg>
