<svg width="37" height="29" viewBox="0 0 37 29" fill="none" xmlns="http://www.w3.org/2000/svg">
<path d="M3.04958 1.95083L17.8 13.4139C18.1382 13.6778 18.5566 13.8213 18.9877 13.8213C19.4187 13.8213 19.8372 13.6778 20.1754 13.4139L34.9257 1.95083M34.3127 27.5819H3.66258C3.15453 27.5819 2.66728 27.3826 2.30802 27.0279C1.94877 26.6731 1.74695 26.192 1.74695 25.6903V2.9912C1.74695 2.48952 1.94877 2.00839 2.30802 1.65364C2.66728 1.2989 3.15453 1.09961 3.66258 1.09961H34.3127C34.8208 1.09961 35.3081 1.2989 35.6673 1.65364C36.0266 2.00839 36.2284 2.48952 36.2284 2.9912V25.6903C36.2284 26.192 36.0266 26.6731 35.6673 27.0279C35.3081 27.3826 34.8208 27.5819 34.3127 27.5819Z" stroke="#A2A2A2" stroke-width="1.5" stroke-linecap="round" stroke-linejoin="round"/>
</svg>
