<svg width="46" height="47" viewBox="0 0 46 47" fill="none" xmlns="http://www.w3.org/2000/svg">
<path d="M34.4815 17.6659H11.4939C10.4359 17.6659 9.57825 18.5128 9.57825 19.5575V38.4734C9.57825 39.5181 10.4359 40.365 11.4939 40.365H34.4815C35.5395 40.365 36.3971 39.5181 36.3971 38.4734V19.5575C36.3971 18.5128 35.5395 17.6659 34.4815 17.6659Z" stroke="#A2A2A2" stroke-width="1.5" stroke-linecap="round" stroke-linejoin="round"/>
<path d="M15.3251 17.666V13.8828C15.3251 11.8761 16.1324 9.95152 17.5694 8.53255C19.0064 7.11358 20.9554 6.31641 22.9876 6.31641V6.31641C25.0198 6.31641 26.9688 7.11358 28.4058 8.53255C29.8428 9.95152 30.6501 11.8761 30.6501 13.8828V17.666" stroke="#A2A2A2" stroke-width="1.5" stroke-linecap="round" stroke-linejoin="round"/>
</svg>
